<?xml version="1.0" encoding="UTF-8"?>
<svg width="1200pt" height="1200pt" version="1.1" viewBox="0 0 1200 1200" xmlns="http://www.w3.org/2000/svg">
 <g fill="#4f59ff">
  <path d="m125.95 460.86 184.08 384.5c6.7188 14.039 18.422 24.504 32.953 29.473 5.9297 2.0273 12.023 3.0352 18.109 3.0352 8.5938 0 17.148-2.0156 25.117-6.0117l48.215-24.562-5.0625 19.066c-9.0977 34.246 10.332 69.574 43.309 78.742l459.7 127.81c5.2812 1.4648 10.668 2.1953 16.031 2.1953 10.465 0 20.844-2.7617 30.289-8.1719 15.023-8.6055 25.777-22.715 30.289-39.719l68.988-259.95c9.0977-34.246-10.332-69.574-43.297-78.742l-180.73-50.258 55.199-28.738c27.984-14.027 39.613-48.672 25.945-77.219l-56.52-118.04 4.3555-2.1836c16.32-8.1953 23.137-28.367 15.168-45l-46.621-97.367c-3.9258-8.1953-10.766-14.305-19.273-17.23-8.3984-2.8438-17.398-2.2578-25.344 1.7383l-3.9609 1.9922-51.898-108.41c-6.7188-14.039-18.422-24.504-32.953-29.473-14.305-4.8828-29.629-3.8398-43.152 2.9414l-522.99 262.35c-27.969 14.027-39.609 48.672-25.941 77.219zm859.84 560.21c-2.8555 10.766-9.6133 19.668-19.02 25.055-8.6641 4.957-18.59 6.2656-27.973 3.6719l-459.7-127.81c-20.363-5.6641-32.281-27.84-26.543-49.453l43.512-163.96 533.28 148.34zm-471.49-381.19 533.28 148.34-12.07 45.48-533.28-148.34zm540.48 121.25-1.0312 3.8867-533.28-148.34 1.0781-4.0938c2.8555-10.766 9.6133-19.668 19.031-25.055 8.6875-4.957 18.602-6.2656 27.973-3.6719l459.7 127.81c20.367 5.6758 32.27 27.852 26.535 49.465zm-233.2-486.39c0.96094 0 1.9219 0.16797 2.8555 0.48047 2.3633 0.80469 4.2734 2.543 5.3984 4.8711l46.621 97.367c2.3516 4.9062 0.43359 10.824-4.2852 13.199l-14.664 7.3555h-0.023437c-0.011719 0-0.011719 0.011719-0.023438 0.011719l-201.97 101.3c-2.1367 1.0781-4.5586 1.2344-6.8047 0.46875-2.3633-0.80469-4.2734-2.543-5.3984-4.8711l-46.621-97.379c-2.3516-4.9062-0.43359-10.812 4.2852-13.188l201.57-101.1h0.023438c0.011719 0 0.011719-0.011718 0.023437-0.011718l15.059-7.5469c1.2422-0.64844 2.5977-0.96094 3.9531-0.96094zm-658.92 130.35 523-262.34c7.7266-3.8633 16.477-4.4883 24.625-1.6797 8.3867 2.8672 15.168 8.9531 19.078 17.125l52.094 108.8-191.27 95.941c-16.32 8.1836-23.125 28.367-15.168 44.988l46.621 97.379c3.9258 8.207 10.766 14.316 19.273 17.23 3.4805 1.1875 7.0664 1.7773 10.645 1.7773 5.0391 0 10.043-1.1875 14.699-3.5156l190.87-95.734 56.328 117.64c8.0508 16.824 1.2969 37.199-15.227 45.492l-78.156 40.691-60.77-16.895 11.832-5.8789c5.9414-2.9414 8.3516-10.152 5.4102-16.078-2.9414-5.9414-10.129-8.3867-16.078-5.4102l-34.754 17.258c-0.28906 0.14453-0.46875 0.40625-0.74219 0.57422l-150-41.711c-15.59-4.3086-32.039-2.2188-46.32 5.9766-15.012 8.6055-25.777 22.715-30.289 39.719l-55.668 209.76c-0.023437 0.011719-0.058594 0.011719-0.085937 0.023438l-67.223 34.246c-7.7266 3.8516-16.488 4.4648-24.625 1.6797-8.3867-2.8672-15.168-8.9531-19.078-17.125l-184.08-384.52c-8.0664-16.848-1.3086-37.211 15.059-45.418z"/>
  <path d="m199.55 449.05c1.7891 0 3.6133-0.39453 5.3281-1.2461l34.754-17.258c5.9414-2.9414 8.3516-10.152 5.4102-16.078-2.9414-5.9414-10.129-8.375-16.078-5.4102l-34.754 17.258c-5.9414 2.9414-8.3516 10.152-5.4102 16.078 2.0859 4.2227 6.3359 6.6562 10.75 6.6562z"/>
  <path d="m291.47 403.41c1.7891 0 3.6133-0.39453 5.3281-1.2461l34.754-17.258c5.9414-2.9531 8.3516-10.152 5.4102-16.094-2.9531-5.9297-10.141-8.3633-16.078-5.3984l-34.754 17.258c-5.9414 2.9531-8.3516 10.152-5.4102 16.094 2.0859 4.2109 6.332 6.6445 10.75 6.6445z"/>
  <path d="m383.38 357.77c1.7891 0 3.6133-0.39453 5.3281-1.2461l34.754-17.258c5.9414-2.9531 8.3516-10.152 5.4102-16.094-2.9414-5.9297-10.141-8.3633-16.078-5.3984l-34.754 17.258c-5.9414 2.9531-8.3516 10.152-5.4102 16.094 2.0977 4.207 6.3359 6.6445 10.75 6.6445z"/>
  <path d="m475.29 312.12c1.7891 0 3.6133-0.39453 5.3281-1.2461l34.754-17.258c5.9414-2.9414 8.3516-10.152 5.4102-16.094-2.9531-5.9297-10.129-8.375-16.078-5.3984l-34.754 17.258c-5.9414 2.9414-8.3516 10.152-5.4102 16.094 2.0977 4.207 6.332 6.6445 10.75 6.6445z"/>
  <path d="m567.2 266.48c1.7891 0 3.6133-0.39453 5.3281-1.2461l34.754-17.258c5.9414-2.9531 8.3516-10.152 5.4102-16.094-2.9531-5.9297-10.141-8.3516-16.078-5.3984l-34.754 17.258c-5.9414 2.9531-8.3516 10.152-5.4102 16.094 2.0859 4.1953 6.3359 6.6445 10.75 6.6445z"/>
  <path d="m659.11 220.82c1.7891 0 3.6133-0.39453 5.3281-1.2461l34.754-17.258c5.9414-2.9414 8.3516-10.152 5.4102-16.078-2.9414-5.9414-10.117-8.3867-16.078-5.4102l-34.754 17.258c-5.9414 2.9414-8.3516 10.152-5.4102 16.078 2.0859 4.2188 6.332 6.6562 10.75 6.6562z"/>
  <path d="m370.12 803.79c1.7891 0 3.6133-0.39453 5.3281-1.2461l34.754-17.258c5.9414-2.9414 8.3516-10.152 5.4102-16.078-2.9414-5.9414-10.117-8.375-16.078-5.4102l-34.754 17.258c-5.9414 2.9414-8.3516 10.152-5.4102 16.078 2.0859 4.2188 6.332 6.6562 10.75 6.6562z"/>
  <path d="m819.59 580.56c1.7891 0 3.6133-0.39453 5.3281-1.2461l34.754-17.258c5.9414-2.9414 8.3516-10.152 5.4102-16.078-2.9414-5.9414-10.129-8.375-16.078-5.4102l-34.754 17.258c-5.9414 2.9414-8.3516 10.152-5.4102 16.078 2.0859 4.2227 6.332 6.6562 10.75 6.6562z"/>
  <path d="m562.85 837.65-32.664-9.0859c-6.3711-1.7539-12.996 1.9688-14.773 8.3516-1.7773 6.3828 1.9688 12.996 8.3398 14.773l32.664 9.0859c1.0781 0.28906 2.1602 0.43359 3.2266 0.43359 5.2578 0 10.078-3.4805 11.555-8.7852 1.7695-6.3867-1.9648-12.984-8.3477-14.773z"/>
  <path d="m643 859.95-32.652-9.0859c-6.3945-1.7383-12.996 1.9688-14.773 8.3516-1.7773 6.3711 1.9688 12.996 8.3398 14.773l32.652 9.0859c1.0781 0.28906 2.1602 0.43359 3.2266 0.43359 5.2578 0 10.078-3.4805 11.555-8.7852 1.7812-6.375-1.9648-13-8.3477-14.773z"/>
  <path d="m900.29 858.25c-10.535-2.9297-21.266-3.457-31.633-1.8477-7.9805-6.625-17.426-11.773-28.055-14.723-19.414-5.3633-39.574-2.9414-56.762 6.9102-16.5 9.457-28.246 24.719-33.07 42.949-10.129 38.258 13.523 78.254 52.727 89.137 6.7422 1.8711 13.598 2.7969 20.363 2.7969 3.793 0 7.5352-0.38281 11.258-0.96094 7.9805 6.625 17.426 11.785 28.066 14.734 6.7422 1.8711 13.586 2.7969 20.352 2.7969 12.719 0 25.199-3.2773 36.395-9.707 16.5-9.457 28.262-24.719 33.098-42.961 10.129-38.258-13.523-78.242-52.738-89.125zm-30.156 66.43c-3.168 11.988-10.922 22.02-21.816 28.262-1.8828 1.0781-3.8867 1.8125-5.8672 2.6289-8.8555-11.605-12.695-26.605-8.8086-41.316 3.1797-11.988 10.934-22.031 21.828-28.285 1.8711-1.0664 3.875-1.8008 5.8438-2.6172 8.8789 11.605 12.719 26.617 8.8203 41.328zm-96.168-27c3.168-11.988 10.922-22.02 21.816-28.262 7.5234-4.3203 15.938-6.5156 24.516-6.5156 4.6094 0 9.2773 0.63672 13.883 1.9062 2.2422 0.625 4.2969 1.5703 6.3828 2.4609-14.855 9.5391-25.598 23.785-30.121 40.848-4.6211 17.473-2.1484 35.258 5.5781 50.508-2.0391-0.3125-4.0781-0.51562-6.1094-1.0781-26.609-7.3906-42.727-34.246-35.945-59.867zm155.86 43.559c-3.1797 11.988-10.934 22.043-21.828 28.285-11.555 6.6133-25.199 8.2695-38.398 4.5859-2.2422-0.625-4.2852-1.5703-6.3711-2.4492 14.844-9.5391 25.598-23.785 30.109-40.836 4.6211-17.473 2.1484-35.27-5.5781-50.531 2.0391 0.3125 4.0938 0.51562 6.1211 1.0938 26.609 7.3789 42.738 34.234 35.945 59.852z"/>
 </g>
</svg>
