<svg id="Layer_1" data-name="Layer 1" xmlns="http://www.w3.org/2000/svg" viewBox="0 0 120 120"><defs><style>.cls-1{fill:#00a4e4;}.cls-2{fill:#414042;}.cls-3{fill:none;}</style></defs><title> facilities&amp;amp;convenience</title><path class="cls-1" d="M41,89.88c2.15,0,4.29,0,6.44,0,.76,0,1,.26,1,1-.06,2.93.33,2.44-2.38,2.46-3.84,0-7.68,0-11.53,0-.94,0-1.27-.28-1.24-1.24.1-2.63-.29-2.21,2.29-2.25,1.8,0,3.6,0,5.4,0Z"/><path class="cls-1" d="M41,83.22c2.15,0,4.29,0,6.44,0,.76,0,1.14.18,1.12,1-.06,2.9.31,2.43-2.4,2.44-3.84,0-7.69,0-11.53,0-1,0-1.25-.32-1.22-1.26.06-2.56-.27-2.22,2.19-2.23Z"/><path class="cls-1" d="M26.7,86.7c-1.94,0-1.62.07-1.65-2,0-1.44,0-1.46,1.42-1.44,2.16,0,2.05-.29,2.06,1.73C28.54,86.7,28.53,86.7,26.7,86.7Z"/><path class="cls-1" d="M26.81,89.88c1.71,0,1.71,0,1.72,1.45,0,2,0,2-1.45,2-2,0-2,0-2-1.34C25.08,89.71,24.78,89.9,26.81,89.88Z"/><path class="cls-2" d="M98.34,28.46c-1.73,0-1.73,0-1.74-1.53C96.6,25,96.6,25,98,25c2,0,2.06,0,2,1.32C100.05,28.63,100.35,28.44,98.34,28.46Z"/><path class="cls-2" d="M81.67,103.35C70,103.53,60.3,93.78,60,82.32A22,22,0,0,1,81.88,59.9c11.56.15,21.32,9.75,21.58,21.13C103.74,93.46,93.39,103.61,81.67,103.35ZM99.93,81.68c-.2-10.14-8-18.19-18.21-18.21a18.18,18.18,0,0,0-.1,36.35C91.73,99.87,99.65,92,99.93,81.68Z"/><path class="cls-2" d="M81.66,110.17c-15.29.24-28.08-12.58-28.53-27.63A28.85,28.85,0,0,1,81.94,53.08c15.18.2,28,12.81,28.34,27.76C110.65,97.17,97.05,110.51,81.66,110.17ZM106.79,81.7c-.27-14-11-25.05-25.07-25.08a25,25,0,0,0-.13,50.06C95.5,106.74,106.41,95.87,106.79,81.7Z"/><path class="cls-2" d="M79.25,87l-2.32-4a3,3,0,0,1-.48,0h-3v4H70.85V73.58h5.6a6.08,6.08,0,0,1,4,1.2A4.28,4.28,0,0,1,81.9,78.2a5.12,5.12,0,0,1-.68,2.69,4.19,4.19,0,0,1-2,1.66l3,4.46Zm-5.83-6.22h3a3.46,3.46,0,0,0,2.23-.63,2.31,2.31,0,0,0,.76-1.88,2.23,2.23,0,0,0-.76-1.85,3.59,3.59,0,0,0-2.23-.61h-3Z"/><path class="cls-2" d="M92.25,77.33A4.56,4.56,0,0,1,94,79.18a6,6,0,0,1,.6,2.74,5.88,5.88,0,0,1-.6,2.71,4.35,4.35,0,0,1-1.68,1.82,4.92,4.92,0,0,1-2.54.65,4.43,4.43,0,0,1-2-.45,3.9,3.9,0,0,1-1.46-1.31v5.39H83.76v-14h2.49v1.69a3.66,3.66,0,0,1,1.43-1.31,4.37,4.37,0,0,1,2-.46A4.89,4.89,0,0,1,92.25,77.33Zm-1,6.75A3.16,3.16,0,0,0,92,81.84a3.11,3.11,0,0,0-.81-2.22,2.95,2.95,0,0,0-4.16,0,3.11,3.11,0,0,0-.81,2.22,3.15,3.15,0,0,0,.81,2.25,2.74,2.74,0,0,0,2.09.86A2.7,2.7,0,0,0,91.22,84.08Z"/><path class="cls-2" d="M106.76,67.5l0-51.73v-.14c0-1.76-.52-2.29-2.29-2.29-2.32,0-4.64,0-7,0a1.38,1.38,0,0,1-1.4-.79A4.77,4.77,0,0,0,91.62,10H88.4A4.73,4.73,0,0,0,84,12.57a1.39,1.39,0,0,1-1.42.78c-1.69,0-3.39,0-5.09,0a1.29,1.29,0,0,1-1.32-.75A4.77,4.77,0,0,0,71.7,10c-1.1,0-2.21,0-3.32,0A4.76,4.76,0,0,0,64,12.62a1.2,1.2,0,0,1-1.23.73c-1.76,0-3.53,0-5.3,0a1.29,1.29,0,0,1-1.29-.79A4.77,4.77,0,0,0,51.79,10H48.47A4.75,4.75,0,0,0,44,12.58a1.38,1.38,0,0,1-1.42.77c-1.66,0-3.33,0-5,0a1.43,1.43,0,0,1-1.48-.84A4.7,4.7,0,0,0,31.87,10c-1.14,0-2.28,0-3.43,0a4.72,4.72,0,0,0-4.35,2.53,1.44,1.44,0,0,1-1.5.81c-2.25,0-4.51,0-6.76,0-2,0-2.42.46-2.42,2.47q0,22.92,0,45.85t0,45.85c0,2,.46,2.49,2.52,2.49H81.48A28.31,28.31,0,0,1,68,106.52H18.42c-1.54,0-1.54,0-1.54-1.51a3.21,3.21,0,0,0,0-.62c-.11-.84.26-1.07,1.07-1.06,4.68,0,9.36,0,14,0q15.12,0,30.26,0c.14,0,.27,0,.4,0h.7a28.38,28.38,0,0,1-3.52-3.5H18.31c-1.43,0-1.43,0-1.43-1.42q0-34.36,0-68.73c0-1,.33-1.26,1.31-1.26q36.8,0,73.61,0c1.64,0,1.64,0,1.64-1.63,0-.25,0-.49,0-.73.1-.86-.27-1.14-1.12-1.13-4.23,0-8.46,0-12.69,0H18.47c-1.59,0-1.59,0-1.59-1.57,0-1.84,0-3.68,0-5.51,0-.79.19-1.14,1.05-1.11,1.62.06,3.26,0,4.88,0a1.22,1.22,0,0,1,1.23.74,4.8,4.8,0,0,0,4.52,2.6c1.11,0,2.22,0,3.33,0a4.7,4.7,0,0,0,4.26-2.5,1.45,1.45,0,0,1,1.49-.84c1.69,0,3.39,0,5.09,0a1.21,1.21,0,0,1,1.26.68,4.81,4.81,0,0,0,4.59,2.65h3.12a4.79,4.79,0,0,0,4.45-2.55,1.29,1.29,0,0,1,1.3-.79c1.74,0,3.47,0,5.2,0a1.28,1.28,0,0,1,1.33.74,4.84,4.84,0,0,0,4.53,2.6h3.23a4.75,4.75,0,0,0,4.36-2.52,1.37,1.37,0,0,1,1.38-.82c1.73,0,3.47,0,5.2,0a1.23,1.23,0,0,1,1.24.71,4.85,4.85,0,0,0,4.62,2.64c1.07,0,2.15,0,3.22,0A4.68,4.68,0,0,0,96,17.67a1.46,1.46,0,0,1,1.47-.87c1.56.05,3.12.06,4.68,0,.9,0,1.09.33,1.09,1.15q0,16.69,0,33.38V63.2a28.67,28.67,0,0,1,3.51,5.19V67.5ZM31.82,16.62a24.11,24.11,0,0,1-3.4,0,1.49,1.49,0,0,1-1.49-1.57,1.53,1.53,0,0,1,1.54-1.53,15.12,15.12,0,0,1,1.65,0,15.12,15.12,0,0,1,1.65,0,1.55,1.55,0,0,1,1.54,1.53A1.49,1.49,0,0,1,31.82,16.62Zm20,0a14.6,14.6,0,0,1-1.75,0h0a13.12,13.12,0,0,1-1.66,0,1.54,1.54,0,0,1-1.5-1.56,1.49,1.49,0,0,1,1.51-1.54,24.26,24.26,0,0,1,3.41,0,1.54,1.54,0,0,1,0,3.08Zm20,0a12.91,12.91,0,0,1-1.76,0h0a11.34,11.34,0,0,1-1.65,0,1.52,1.52,0,0,1-1.51-1.54,1.5,1.5,0,0,1,1.51-1.55,22.83,22.83,0,0,1,3.41,0A1.46,1.46,0,0,1,73.23,15,1.5,1.5,0,0,1,71.78,16.61Zm20.06,0a14,14,0,0,1-3.71,0,1.44,1.44,0,0,1-1.3-1.51,1.48,1.48,0,0,1,1.32-1.5,15.82,15.82,0,0,1,1.95-.11v.07a13,13,0,0,1,1.65,0A1.51,1.51,0,0,1,93.21,15,1.48,1.48,0,0,1,91.84,16.6Z"/><path class="cls-1" d="M95.08,37.2V37h0c0-1.57-.58-2.07-2.23-2.07H27.33c-1.77,0-2.27.52-2.28,2.31V76.07c0,1.82.52,2.31,2.37,2.31H53.34a28.56,28.56,0,0,1,1.81-7.28V65.84c0-.36,0-.73.51-.75.64,0,1.28-.06,1.92,0h.88a28.54,28.54,0,0,1,2.94-3.47h-.94c-1.48,0-3,0-4.44,0-.71,0-.89-.3-.88-.94,0-1.35,0-2.7,0-4s0-2.64,0-4c0-.68.24-.92.91-.91,2.67,0,5.34,0,8,0,.75,0,1,.3.93,1,0,1.66,0,3.32,0,5h0v.77a27.91,27.91,0,0,1,3.48-2.13v-.51a1.09,1.09,0,0,1,0-.26c0-.52,0-1,0-1.56,0-2.27,0-2.28,2.33-2.28h6.54c.52,0,1,0,1,.73,0,0,0,0,0,0h0v.81a27.09,27.09,0,0,1,3.27-.2h.19v-.67c0-.73.47-.72,1-.72h4c1.35,0,2.7,0,4,0,.61,0,.84.21.87.84,0,.29,0,.54,0,.77h0v.08a2.4,2.4,0,0,1,0,.38V55a28.2,28.2,0,0,1,3.45,1.56V50.07C95.13,45.78,95.09,41.49,95.08,37.2ZM29.42,38.44q4,0,8.11,0c.63,0,.85.26.84.87,0,1.35,0,2.7,0,4s0,2.71,0,4.06c0,.61-.2.87-.84.87-2.74,0-5.47,0-8.21,0-.59,0-.79-.25-.79-.81,0-2.74,0-5.48,0-8.22C28.52,38.61,28.83,38.44,29.42,38.44Zm0,13.31c2.7,0,5.41,0,8.11,0,.64,0,.85.26.84.87,0,1.35,0,2.7,0,4.06s0,2.7,0,4c0,.61-.2.88-.84.87q-4.11,0-8.21,0c-.59,0-.8-.25-.8-.81q0-4.11,0-8.22C28.52,51.91,28.83,51.75,29.42,51.75Zm8,23.17q-4,0-8,0c-.61,0-.87-.2-.87-.84,0-2.74,0-5.47,0-8.21,0-.59.24-.8.81-.8,1.39,0,2.78,0,4.16,0s2.64,0,3.95,0c.66,0,.94.2.93.89q0,4,0,8C38.38,74.69,38.11,74.92,37.4,74.92Zm13.35,0q-4,0-8,0c-.67,0-.93-.22-.92-.9,0-2.7,0-5.41,0-8.11,0-.64.26-.85.87-.84,1.36,0,2.71,0,4.06,0s2.7,0,4.05,0c.62,0,.87.21.87.85q0,4.05,0,8.1C51.69,74.7,51.41,74.91,50.75,74.91Zm0-13.31q-4.05,0-8.11,0c-.63,0-.85-.26-.84-.87,0-1.35,0-2.7,0-4s0-2.71,0-4.06c0-.61.21-.87.84-.87q4.11,0,8.22,0c.58,0,.79.25.79.81,0,2.74,0,5.48,0,8.22C51.69,61.44,51.37,61.6,50.78,61.6Zm.9-14.22c0,.66-.22.92-.9.91-2.67,0-5.34,0-8,0-.74,0-1-.28-.94-1,0-2.63,0-5.27,0-7.9,0-.72.23-1,1-1,1.35,0,2.7,0,4.06,0s2.56,0,3.84,0c.69,0,1,.17,1,.93Q51.65,43.38,51.68,47.38ZM64,48.29c-1.35,0-2.7,0-4.06,0s-2.63,0-4,0c-.61,0-.87-.21-.87-.84q0-4.11,0-8.22c0-.58.24-.79.81-.79,2.74,0,5.47,0,8.21,0,.66,0,.83.3.82.89,0,2.67,0,5.34,0,8C65,48.07,64.73,48.31,64,48.29Zm13.37,0c-2.67,0-5.33,0-8,0-.65,0-.94-.18-.94-.89,0-2.7,0-5.4,0-8.1,0-.63.22-.87.85-.86q4.05,0,8.11,0c.69,0,.9.28.88.93,0,1.35,0,2.7,0,4.05s0,2.64,0,3.95C78.32,48.05,78.07,48.29,77.39,48.29Zm14.22-4.82c0,1.28,0,2.56,0,3.84,0,.71-.2,1-1,1q-3.94,0-7.89,0c-.78,0-1-.27-1-1q0-3.94,0-7.9c0-.65.19-.93.89-.92q4,0,8,0c.73,0,1,.26,1,1C91.58,40.76,91.61,42.11,91.61,43.47Z"/><rect class="cls-3" width="2" height="2"/><rect class="cls-3" x="118" y="118" width="2" height="2"/></svg>