<?xml version="1.0" encoding="UTF-8"?>
<svg width="1001px" height="1000px" viewBox="0 0 1001 1000" version="1.1" xmlns="http://www.w3.org/2000/svg" xmlns:xlink="http://www.w3.org/1999/xlink">
    <!-- Generator: Sketch 55.1 (78136) - https://sketchapp.com -->
    <title>编组 108</title>
    <desc>Created with Sketch.</desc>
    <g id="上传" stroke="none" stroke-width="1" fill="none" fill-rule="evenodd">
        <g id="2" transform="translate(-6814.000000, -2404.000000)">
            <g id="编组-108" transform="translate(6814.666667, 2404.000000)">
                <rect id="矩形备份-91" x="0" y="0" width="1000" height="1000"></rect>
                <g id="E-Commerce__x2F__Shopping" transform="translate(106.000000, 73.000000)" fill-rule="nonzero">
                    <g id="wallet">
                        <path d="M606.572254,547.379679 C606.572254,559.923797 616.833815,570.187166 629.375723,570.187166 L766.196532,570.187166 C778.738439,570.187166 789,559.923797 789,547.379679 L789,499.483957 C789,486.93984 778.738439,476.676471 766.196532,476.676471 L629.375723,476.676471 C616.833815,476.676471 606.572254,486.93984 606.572254,499.483957 L606.572254,547.379679 Z" id="路径" fill="#D55400"></path>
                        <path d="M597.450867,565.625668 C597.450867,578.169786 607.712428,588.433155 620.254335,588.433155 L757.075145,588.433155 C769.617052,588.433155 779.878613,578.169786 779.878613,565.625668 L779.878613,517.729947 C779.878613,505.185829 769.617052,494.92246 757.075145,494.92246 L620.254335,494.92246 C607.712428,494.92246 597.450867,505.185829 597.450867,517.729947 L597.450867,565.625668 Z" id="路径" fill="#C24C00"></path>
                        <path d="M700.066474,337.550802 L46.551,337.550802 C20.8423699,337.550802 0,315.172096 0,289.458936 L0,279.685928 C0,253.970487 20.8423699,234.917112 46.551,234.917112 L699.263792,234.917112 C724.972422,234.917112 745.67341,253.970487 745.67341,279.685928 L745.67341,438.907273 L700.066474,413.18727 L700.066474,337.550802 L700.066474,337.550802 Z" id="路径" fill="#E87E04"></path>
                        <path d="M711.468208,405.617465 C711.468208,405.617465 711.468208,375.454564 711.468208,350.589842 C711.468208,325.729682 688.379697,323.86631 688.379697,323.86631 L46.551,323.86631 C27.9752948,323.86631 13.6820809,308.040195 13.6820809,289.458936 L13.6820809,279.685928 C13.6820809,261.104668 27.9752948,246.320856 46.551,246.320856 L699.263792,246.320856 C717.841777,246.320856 731.991329,261.104668 731.991329,279.685928 L731.991329,417.048578 L711.468208,405.617465 Z" id="路径" fill="#00BD9C"></path>
                        <path d="M727.430636,328.55781 C727.430636,327.684283 727.558335,326.769703 727.489925,325.909861 C721.506295,316.510896 711.210529,310.181818 699.263792,310.181818 L20.1217803,310.181818 C26.2992399,319.304813 35.840211,323.86631 46.551,323.86631 L688.379697,323.86631 L699.263792,323.86631 C717.841777,323.86631 731.991329,338.271519 731.991329,356.852778 L731.991329,343.991636 C731.991329,337.448168 731.991329,331.35857 727.430636,326.176709 L727.430636,328.55781 Z" id="路径" fill="#00A185"></path>
                        <path d="M727.489925,326.781107 C727.537812,326.85181 727.430636,326.110567 727.430636,326.176709 L727.430636,318.269353 C727.430636,299.685813 712.699595,285.091302 694.12389,285.091302 L13.6820809,285.091302 L13.6820809,289.456655 C13.6820809,291.301781 13.0481445,294.214297 13.3354682,296.495045 L694.12389,296.495045 C711.823942,296.497326 726.155922,309.413206 727.489925,326.781107 Z" id="路径" fill="#00A185"></path>
                        <path d="M699.263792,260.005348 L20.1217803,260.005348 C17.7114538,262.286096 15.8187659,266.847594 14.5714162,269.128342 L699.263792,269.128342 C717.841777,269.128342 731.991329,284.256548 731.991329,302.835527 L731.991329,292.544789 C731.991329,273.96581 717.844058,260.005348 699.263792,260.005348 Z" id="路径" fill="#00A185"></path>
                        <path d="M716.028902,336.280425 L716.028902,337.550802 L46.551,337.550802 C20.8423699,337.550802 0,315.172096 0,289.458936 L0,801.505257 C0,829.964439 23.0657081,853 51.5221561,853 L709.726023,853 C738.180191,853 761.635838,829.964439 761.635838,801.505257 L761.635838,387.549374 C761.635838,360.853211 741.112717,338.905567 716.028902,336.280425 Z" id="路径" fill="#D55400"></path>
                        <g id="编组" transform="translate(20.523121, 354.369043)" fill="#E87E04">
                            <path d="M22.7031329,8.88807754 C23.0657081,6.78978877 21.6541734,4.79413369 19.5562543,4.4292139 C16.6077659,3.92060695 13.5749046,3.04023797 10.3664566,2.10741176 C8.55814162,1.58283957 6.72018208,1.05142513 4.85941908,0.574748663 C3.70328324,0.266847594 2.46277457,0.526852941 1.51871098,1.26125401 C0.576927746,1.99109358 0,3.11322193 0,4.30833422 L0,20.2279599 C0,22.3581791 1.28839595,24.0847059 3.42052023,24.0847059 C5.55264451,24.0847059 6.84104046,22.3558984 6.84104046,20.2279599 L6.84104046,9.38528075 C6.84104046,9.43089572 7.60723699,9.47422995 7.75773988,9.51984492 C11.0277572,10.4686364 14.8747023,11.4539198 18.2473353,12.0377914 C20.3292919,12.4004305 22.3428382,10.9909278 22.7031329,8.88807754 Z" id="路径"></path>
                            <path d="M3.42052023,207.550409 C5.55264451,207.550409 6.84104046,205.821602 6.84104046,203.693663 L6.84104046,173.131631 C6.84104046,171.001412 5.55264451,169.274885 3.42052023,169.274885 C1.28839595,169.274885 0,171.003693 0,173.131631 L0,203.693663 C0,205.821602 1.28839595,207.550409 3.42052023,207.550409 Z" id="路径"></path>
                            <path d="M3.42052023,85.2977193 C5.55264451,85.2977193 6.84104046,83.5689118 6.84104046,81.4409733 L6.84104046,50.8835027 C6.84104046,48.7532834 5.55264451,47.0267567 3.42052023,47.0267567 C1.28839595,47.0267567 0,48.7555642 0,50.8835027 L0,81.4409733 C0,83.5711925 1.28839595,85.2977193 3.42052023,85.2977193 Z" id="路径"></path>
                            <path d="M110.029014,12.831492 L140.583382,12.831492 C142.715506,12.831492 144.439448,11.5405882 144.439448,9.41036898 C144.439448,7.27558824 142.713225,5.98924599 140.583382,5.98924599 L110.029014,5.98924599 C107.89689,5.98924599 106.170668,7.27558824 106.170668,9.41036898 C106.170668,11.5405882 107.89689,12.831492 110.029014,12.831492 Z" id="路径"></path>
                            <path d="M48.9157197,12.831492 L79.4700867,12.831492 C81.602211,12.831492 83.3261532,11.5405882 83.3261532,9.41036898 C83.3261532,7.27558824 81.5999306,5.98924599 79.4700867,5.98924599 L48.9157197,5.98924599 C46.781315,5.98924599 45.0573728,7.27558824 45.0573728,9.41036898 C45.0573728,11.5405882 46.7835954,12.831492 48.9157197,12.831492 Z" id="路径"></path>
                            <path d="M3.42052023,268.672193 C5.55264451,268.672193 6.84104046,266.943385 6.84104046,264.815447 L6.84104046,234.257976 C6.84104046,232.123195 5.55264451,230.40123 3.42052023,230.40123 C1.28839595,230.40123 0,232.125476 0,234.257976 L0,264.815447 C0,266.943385 1.28839595,268.672193 3.42052023,268.672193 Z" id="路径"></path>
                            <path d="M3.42052023,390.922602 C5.55264451,390.922602 6.84104046,389.193794 6.84104046,387.061294 L6.84104046,356.499262 C6.84104046,354.369043 5.55264451,352.642516 3.42052023,352.642516 C1.28839595,352.642516 0,354.371324 0,356.499262 L0,387.061294 C0,389.196075 1.28839595,390.922602 3.42052023,390.922602 Z" id="路径"></path>
                            <path d="M6.84104046,417.623326 C6.84104046,415.493107 5.55264451,413.76658 3.42052023,413.76658 C1.28839595,413.76658 0,415.495388 0,417.623326 L0,447.133933 C0,447.539906 0.0364855491,448.431679 0.0524479769,448.837652 C0.141381503,450.908572 1.87444509,453.013703 3.92675723,453.013703 C3.98148555,453.013703 4.03849422,453.013703 4.09550289,453.013703 C6.22534682,453.013703 7.41112717,450.632602 7.31991329,448.502382 C7.30851156,448.212727 6.83876012,447.425869 6.83876012,447.131652 L6.83876012,417.623326 L6.84104046,417.623326 Z" id="路径"></path>
                            <path d="M3.42052023,329.798537 C5.55264451,329.798537 6.84104046,328.06973 6.84104046,325.941791 L6.84104046,295.379759 C6.84104046,293.24954 5.55264451,291.523013 3.42052023,291.523013 C1.28839595,291.523013 0,293.251821 0,295.379759 L0,325.941791 C0,328.06973 1.28839595,329.798537 3.42052023,329.798537 Z" id="路径"></path>
                            <path d="M3.42052023,146.424064 C5.55264451,146.424064 6.84104046,144.695257 6.84104046,142.567318 L6.84104046,112.005286 C6.84104046,109.875067 5.55264451,108.14854 3.42052023,108.14854 C1.28839595,108.14854 0,109.877348 0,112.005286 L0,142.567318 C0,144.695257 1.28839595,146.424064 3.42052023,146.424064 Z" id="路径"></path>
                            <path d="M476.708783,12.831492 L507.265431,12.831492 C509.395275,12.831492 511.121497,11.5405882 511.121497,9.41036898 C511.121497,7.27558824 509.392994,5.98924599 507.265431,5.98924599 L476.708783,5.98924599 C474.576659,5.98924599 472.852715,7.27558824 472.852715,9.41036898 C472.850436,11.5405882 474.576659,12.831492 476.708783,12.831492 Z" id="路径"></path>
                            <path d="M598.933092,12.831492 L629.48974,12.831492 C631.621864,12.831492 633.345806,11.5405882 633.345806,9.41036898 C633.345806,7.27558824 631.619584,5.98924599 629.48974,5.98924599 L598.933092,5.98924599 C596.803249,5.98924599 595.077026,7.27558824 595.077026,9.41036898 C595.077026,11.5405882 596.805529,12.831492 598.933092,12.831492 Z" id="路径"></path>
                            <path d="M537.824358,12.831492 L568.378725,12.831492 C570.51085,12.831492 572.234792,11.5405882 572.234792,9.41036898 C572.234792,7.27558824 570.508569,5.98924599 568.378725,5.98924599 L537.824358,5.98924599 C535.689954,5.98924599 533.966009,7.27558824 533.966009,9.41036898 C533.963731,11.5405882 535.689954,12.831492 537.824358,12.831492 Z" id="路径"></path>
                            <path d="M171.142309,12.831492 L201.698957,12.831492 C203.828801,12.831492 205.555023,11.5405882 205.555023,9.41036898 C205.555023,7.27558824 203.82652,5.98924599 201.698957,5.98924599 L171.142309,5.98924599 C169.010185,5.98924599 167.286241,7.27558824 167.286241,9.41036898 C167.283962,11.5405882 169.010185,12.831492 171.142309,12.831492 Z" id="路径"></path>
                            <path d="M660.048668,12.831492 L690.520942,12.831492 C691.339587,12.831492 692.201558,12.6627166 692.862858,12.1814786 C694.58224,10.9247861 694.924292,8.66912567 693.670101,6.94944118 C692.862858,5.85012032 691.563061,5.98924599 690.292908,5.98924599 L660.048668,5.98924599 C657.916543,5.98924599 656.192601,7.27558824 656.192601,9.41036898 C656.192601,11.5405882 657.918824,12.831492 660.048668,12.831492 Z" id="路径"></path>
                            <path d="M415.593208,12.831492 L446.149855,12.831492 C448.28426,12.831492 450.008202,11.5405882 450.008202,9.41036898 C450.008202,7.27558824 448.28198,5.98924599 446.149855,5.98924599 L415.593208,5.98924599 C413.463364,5.98924599 411.737142,7.27558824 411.737142,9.41036898 C411.737142,11.5405882 413.463364,12.831492 415.593208,12.831492 Z" id="路径"></path>
                            <path d="M232.255604,12.831492 L262.809971,12.831492 C264.944376,12.831492 266.668318,11.5405882 266.668318,9.41036898 C266.668318,7.27558824 264.942095,5.98924599 262.809971,5.98924599 L232.255604,5.98924599 C230.12348,5.98924599 228.399535,7.27558824 228.399535,9.41036898 C228.397257,11.5405882 230.12348,12.831492 232.255604,12.831492 Z" id="路径"></path>
                            <path d="M293.366618,12.831492 L323.923266,12.831492 C326.05539,12.831492 327.779332,11.5405882 327.779332,9.41036898 C327.779332,7.27558824 326.05311,5.98924599 323.923266,5.98924599 L293.366618,5.98924599 C291.236775,5.98924599 289.510552,7.27558824 289.510552,9.41036898 C289.510552,11.5405882 291.239055,12.831492 293.366618,12.831492 Z" id="路径"></path>
                            <path d="M354.482194,12.831492 L385.038841,12.831492 C387.168685,12.831492 388.894908,11.5405882 388.894908,9.41036898 C388.894908,7.27558824 387.166405,5.98924599 385.038841,5.98924599 L354.482194,5.98924599 C352.347789,5.98924599 350.623847,7.27558824 350.623847,9.41036898 C350.623847,11.5405882 352.350069,12.831492 354.482194,12.831492 Z" id="路径"></path>
                            <path d="M173.137613,471.261973 L142.583246,471.261973 C140.451121,471.261973 138.724899,472.552877 138.724899,474.683096 C138.724899,476.813316 140.453402,478.104219 142.583246,478.104219 L173.137613,478.104219 C175.269737,478.104219 176.993679,476.813316 176.993679,474.683096 C176.993679,472.552877 175.267457,471.261973 173.137613,471.261973 Z" id="路径"></path>
                            <path d="M713.748555,327.654634 C711.616431,327.654634 709.187861,329.383441 709.187861,331.51138 L709.187861,362.073412 C709.187861,364.203631 711.616431,365.930158 713.748555,365.930158 C715.880679,365.930158 718.309249,364.20135 718.309249,362.073412 L718.309249,331.51138 C718.309249,329.383441 715.880679,327.654634 713.748555,327.654634 Z" id="路径"></path>
                            <path d="M713.748555,388.780979 C711.616431,388.780979 709.187861,390.509786 709.187861,392.637725 L709.187861,423.199757 C709.187861,425.329976 711.616431,427.056503 713.748555,427.056503 C715.880679,427.056503 718.309249,425.327695 718.309249,423.199757 L718.309249,392.637725 C718.309249,390.509786 715.880679,388.780979 713.748555,388.780979 Z" id="路径"></path>
                            <path d="M713.837488,449.946096 C711.762373,449.483104 709.696379,450.774008 709.219786,452.844928 C707.103624,462.127575 700.351517,468.921925 692.02141,470.164933 C689.91437,470.481957 688.459509,472.44112 688.771916,474.548532 C689.05696,476.464361 690.70565,477.839652 692.584656,477.839652 C692.773925,477.839652 692.963194,477.825968 693.157023,477.794037 C704.654532,476.083476 713.91502,466.965043 716.74265,454.562332 C717.216962,452.491412 715.914884,450.418211 713.837488,449.946096 Z" id="路径"></path>
                            <path d="M713.748555,266.528289 C711.616431,266.528289 709.187861,268.257096 709.187861,270.385035 L709.187861,300.947067 C709.187861,303.081848 711.616431,304.808374 713.748555,304.808374 C715.880679,304.808374 718.309249,303.079567 718.309249,300.947067 L718.309249,270.385035 C718.309249,268.257096 715.880679,266.528289 713.748555,266.528289 Z" id="路径"></path>
                            <path d="M713.748555,205.408786 C711.616431,205.408786 709.187861,207.137594 709.187861,209.265532 L709.187861,239.827564 C709.187861,241.957783 711.616431,243.68431 713.748555,243.68431 C715.880679,243.68431 718.309249,241.955503 718.309249,239.827564 L718.309249,209.265532 C718.309249,207.135313 715.880679,205.408786 713.748555,205.408786 Z" id="路径"></path>
                            <path d="M716.754052,24.9513904 C716.183965,22.8941551 713.600332,21.6944813 711.552581,22.2646684 C709.502549,22.8348556 708.132061,24.9650749 708.702147,27.0131872 C709.24715,28.9769118 709.187861,31.0501123 709.187861,33.1780508 L709.187861,56.4530909 C709.187861,58.5833102 711.616431,60.3098369 713.748555,60.3098369 C715.880679,60.3098369 718.309249,58.5810294 718.309249,56.4530909 L718.309249,33.1757701 C718.309249,30.3522032 717.486043,27.5856551 716.754052,24.9513904 Z" id="路径"></path>
                            <path d="M713.748555,83.1560963 C711.616431,83.1560963 709.187861,84.8849037 709.187861,87.0174037 L709.187861,117.579436 C709.187861,119.709655 711.616431,121.436182 713.748555,121.436182 C715.880679,121.436182 718.309249,119.707374 718.309249,117.579436 L718.309249,87.0174037 C718.309249,84.8849037 715.880679,83.1560963 713.748555,83.1560963 Z" id="路径"></path>
                            <path d="M662.043971,471.261973 L631.489604,471.261973 C629.35748,471.261973 627.631257,472.552877 627.631257,474.683096 C627.631257,476.813316 629.35976,478.104219 631.489604,478.104219 L662.043971,478.104219 C664.176095,478.104219 665.900038,476.813316 665.900038,474.683096 C665.900038,472.552877 664.176095,471.261973 662.043971,471.261973 Z" id="路径"></path>
                            <path d="M713.748555,144.282441 C711.616431,144.282441 709.187861,146.011249 709.187861,148.143749 L709.187861,178.701219 C709.187861,180.831439 711.616431,182.557965 713.748555,182.557965 C715.880679,182.557965 718.309249,180.829158 718.309249,178.701219 L718.309249,148.143749 C718.309249,146.011249 715.880679,144.282441 713.748555,144.282441 Z" id="路径"></path>
                            <path d="M417.593072,471.261973 L387.036425,471.261973 C384.904301,471.261973 383.180358,472.552877 383.180358,474.683096 C383.180358,476.813316 384.906581,478.104219 387.036425,478.104219 L417.593072,478.104219 C419.722916,478.104219 421.449139,476.813316 421.449139,474.683096 C421.449139,472.552877 419.722916,471.261973 417.593072,471.261973 Z" id="路径"></path>
                            <path d="M295.364202,471.261973 L264.807555,471.261973 C262.675431,471.261973 260.951488,472.552877 260.951488,474.683096 C260.951488,476.813316 262.677711,478.104219 264.807555,478.104219 L295.364202,478.104219 C297.496327,478.104219 299.222549,476.813316 299.222549,474.683096 C299.222549,472.552877 297.496327,471.261973 295.364202,471.261973 Z" id="路径"></path>
                            <path d="M600.930676,471.261973 L570.376309,471.261973 C568.241905,471.261973 566.517962,472.552877 566.517962,474.683096 C566.517962,476.813316 568.244185,478.104219 570.376309,478.104219 L600.930676,478.104219 C603.062801,478.104219 604.786743,476.813316 604.786743,474.683096 C604.786743,472.552877 603.062801,471.261973 600.930676,471.261973 Z" id="路径"></path>
                            <path d="M234.253188,471.261973 L203.69654,471.261973 C201.566697,471.261973 199.840474,472.552877 199.840474,474.683096 C199.840474,476.813316 201.568977,478.104219 203.69654,478.104219 L234.253188,478.104219 C236.383032,478.104219 238.109254,476.813316 238.109254,474.683096 C238.109254,472.552877 236.380751,471.261973 234.253188,471.261973 Z" id="路径"></path>
                            <path d="M112.026598,471.261973 L81.4699509,471.261973 C79.3355462,471.261973 77.611604,472.552877 77.611604,474.683096 C77.611604,476.813316 79.3378266,478.104219 81.4699509,478.104219 L112.026598,478.104219 C114.156442,478.104219 115.882665,476.813316 115.882665,474.683096 C115.882665,472.552877 114.156442,471.261973 112.026598,471.261973 Z" id="路径"></path>
                            <path d="M356.477497,471.261973 L325.92085,471.261973 C323.791006,471.261973 322.064783,472.552877 322.064783,474.683096 C322.064783,476.813316 323.793286,478.104219 325.92085,478.104219 L356.477497,478.104219 C358.609621,478.104219 360.333564,476.813316 360.333564,474.683096 C360.333564,472.552877 358.609621,471.261973 356.477497,471.261973 Z" id="路径"></path>
                            <path d="M539.819662,471.261973 L509.263014,471.261973 C507.13089,471.261973 505.406948,472.552877 505.406948,474.683096 C505.406948,476.813316 507.133171,478.104219 509.263014,478.104219 L539.819662,478.104219 C541.951786,478.104219 543.675728,476.813316 543.675728,474.683096 C543.675728,472.552877 541.949506,471.261973 539.819662,471.261973 Z" id="路径"></path>
                            <path d="M478.704087,471.261973 L448.152,471.261973 C446.017595,471.261973 444.293653,472.552877 444.293653,474.683096 C444.293653,476.813316 446.019876,478.104219 448.152,478.104219 L478.704087,478.104219 C480.838491,478.104219 482.562434,476.813316 482.562434,474.683096 C482.562434,472.552877 480.836211,471.261973 478.704087,471.261973 Z" id="路径"></path>
                            <path d="M50.9110231,471.261973 L30.9990347,471.261973 C28.0505462,471.261973 25.1134595,470.169495 22.2675867,468.889995 C20.3224509,468.011906 18.042104,468.438406 17.1664509,470.379324 C16.293078,472.327083 17.1618902,474.612393 19.1047457,475.48592 C22.9539711,477.219289 26.9559798,478.101939 31.001315,478.101939 L50.9133035,478.101939 C53.0454277,478.101939 54.7693699,476.811035 54.7693699,474.680816 C54.7693699,472.550596 53.0431474,471.261973 50.9110231,471.261973 Z" id="路径"></path>
                        </g>
                        <path d="M789,604.398396 C789,616.942513 778.738439,627.205882 766.196532,627.205882 L540.442197,627.205882 C527.900289,627.205882 517.638728,616.942513 517.638728,604.398396 L517.638728,545.09893 C517.638728,532.554813 527.900289,522.291444 540.442197,522.291444 L766.196532,522.291444 C778.738439,522.291444 789,514.308824 789,500.624332 L789,604.398396 Z" id="路径" fill="#E87E04"></path>
                        <path d="M717.169075,323.86631 L46.551,323.86631 C45.1805116,323.86631 43.8396676,323.129628 42.5125058,322.967695 C43.8442283,323.084013 45.6000954,322.849096 46.9637428,322.849096 C28.3857572,322.849096 13.6820809,307.481412 13.6820809,288.900152 L13.6820809,278.86942 L0.412742775,276.041291 L0.720589595,277.503251 L0.182427746,278.150984 L0,278.251337 L0,279.133987 L0,288.902433 C0,314.617874 20.8423699,337.550802 46.551,337.550802 L716.028902,337.550802 C741.112717,340.173663 761.635838,360.30127 761.635838,386.992872 L761.635838,374.13173 C761.635838,347.440128 742.25289,326.489171 717.169075,323.86631 Z" id="路径" fill="#E87E04"></path>
                        <rect id="矩形" fill="#F59D00" x="68.4104046" y="722.997326" width="212.072254" height="45.6149733"></rect>
                        <rect id="矩形" fill="#F2C500" x="68.4104046" y="738.962567" width="212.072254" height="47.8957219"></rect>
                        <path d="M327.295899,203.394885 L320.078601,194.208029 L312.856743,185.080473 L305.637165,175.996251 L276.758853,139.73919 L274.945977,141.180623 L110.106546,272.86877 C105.933512,276.191821 102.770671,280.534366 100.583818,285.095864 L392.205971,285.095864 L327.295899,203.394885 Z" id="路径" fill="#D9BF7C"></path>
                        <path d="M312.856743,185.016612 L320.078601,194.078027 L327.295899,203.394885 L392.205971,285.093583 L600.506532,285.093583 L637.986312,254.951209 C652.931705,243.034297 655.412723,220.929281 643.49563,205.978973 L542.416977,79.0895214 L519.312503,50.0738369 L512.090645,40.9941765 L504.871066,31.9304813 L497.651488,22.8667861 L490.43191,13.8030909 C478.517098,-1.14265508 456.543676,-3.62639037 441.600564,8.29052139 L276.761133,139.718663 L305.639445,175.957479 L312.856743,185.016612 Z" id="路径" fill="#D6B663"></path>
                        <ellipse id="椭圆形" fill="#F2C500" cx="577.274358" cy="574.244618" rx="37.6827312" ry="37.6893717"></ellipse>
                        <path d="M577.274358,603.95365 C560.894627,603.95365 547.572841,590.627235 547.572841,574.246898 C547.572841,557.866561 560.896908,544.540147 577.274358,544.540147 C593.651809,544.540147 606.975876,557.866561 606.975876,574.246898 C606.975876,590.627235 593.65409,603.95365 577.274358,603.95365 Z M577.274358,551.380112 C564.668601,551.380112 554.413882,561.636639 554.413882,574.244618 C554.413882,586.852596 564.668601,597.109123 577.274358,597.109123 C589.880116,597.109123 600.134835,586.852596 600.134835,574.244618 C600.134835,561.636639 589.882396,551.380112 577.274358,551.380112 Z" id="形状" fill="#F59D00"></path>
                    </g>
                </g>
            </g>
        </g>
    </g>
</svg>