<svg xmlns="http://www.w3.org/2000/svg" xmlns:xlink="http://www.w3.org/1999/xlink" viewBox="0 0 1850.65 1848.51"><defs><style>.cls-1,.cls-5{fill:#4d9e6f;}.cls-1,.cls-2,.cls-3{clip-rule:evenodd;}.cls-12,.cls-2,.cls-20{fill:#ffcf2e;}.cls-15,.cls-3{fill:#ff9c17;}.cls-4{fill:none;}.cls-11,.cls-12,.cls-14,.cls-15,.cls-17,.cls-5,.cls-7,.cls-8{fill-rule:evenodd;}.cls-6{clip-path:url(#clip-path);}.cls-7{fill:#479166;}.cls-8{fill:#5baf7e;}.cls-9{fill:#3f815b;}.cls-10{fill:#fff;}.cls-11{fill:#ff9d1a;}.cls-13{clip-path:url(#clip-path-2);}.cls-14{fill:#ffe386;}.cls-16{clip-path:url(#clip-path-3);}.cls-17,.cls-18{fill:#f38b00;}.cls-19{clip-path:url(#clip-path-4);}.cls-21{clip-path:url(#clip-path-5);}.cls-22{clip-path:url(#clip-path-6);}.cls-23{clip-path:url(#clip-path-7);}</style><clipPath id="clip-path" transform="translate(0 59.06)"><path class="cls-1" d="M758.72,64.44C737,106.7,1004.55,317.23,988.53,404.71c-14.82,80.9-582.24,390.07-467.9,914.74,72.39,332.2,770.9,373.06,1001.44,264.13,250.79-118.51,340.08-405.2,262.67-660.53-59.61-196.6-346.77-373.7-343.17-477.43,3.85-110.94,208.09-234,170-365.45-53.75-185.45-214.58,8.76-392.08,10-194.6,1.33-380.33-182.24-460.77-25.7Z"/></clipPath><clipPath id="clip-path-2" transform="translate(0 59.06)"><path class="cls-2" d="M622.19,1260.69c132.2-6,244.4,96.43,250.41,228.62S776.17,1733.71,644,1739.72,399.59,1643.3,393.57,1511.1,490,1266.71,622.19,1260.69Z"/></clipPath><clipPath id="clip-path-3" transform="translate(0 59.06)"><path class="cls-3" d="M624.13,1303.32c108.67-5,200.91,79.26,205.85,187.93S750.71,1692.16,642,1697.1s-200.9-79.27-205.85-187.93,79.28-200.91,187.94-205.85Z"/></clipPath><clipPath id="clip-path-4" transform="translate(0 59.06)"><path class="cls-4" d="M595.21,1493.31a60.52,60.52,0,0,0,14.53-10.26,54.75,54.75,0,0,0,16.36-36.15c.73-16.83-4.47-32.19-15.15-42.8-7.24-7.48-20.53-16.17-42.39-15.18l-66.46,3a4.62,4.62,0,0,0-4.29,4.7l6.95,152.69a20.85,20.85,0,0,0,21.91,20l7.48-.34a4.61,4.61,0,0,0,4.29-4.69l-2.89-63.48,29.34-1.33c4.78,12.68,13.26,34.19,25.94,55.82a20.86,20.86,0,0,0,19.07,10.23l18.26-.83a4.54,4.54,0,0,0,3.58-7.06c-16-22.37-28.88-47.89-36.53-64.34Zm-63.44-75.72,38-1.72c7.79-.36,13.6,2.08,17.72,7,3.83,4.93,6,13.23,5.54,22.85-.54,14.42-9.32,25.92-20.69,26.44l-38,1.73-2.55-56.29Zm190.49,12.94c-19.17.87-30.76,9.8-37.85,18.82A21,21,0,0,0,663,1433.23l-7.49.34a4.61,4.61,0,0,0-4.28,4.69l7.9,173.94a21.26,21.26,0,0,0,21.92,20l7.48-.35a4.41,4.41,0,0,0,4.29-4.69l-3.45-75.74c7.87,8,20.21,15.58,39.07,14.72,22.16-1,34.5-13.27,40.94-23.46,7.53-12.34,11.3-28.42,10.47-46.68-.84-18.56-6.05-34.22-14.68-45.83-7.34-9.57-20.74-20.66-42.89-19.65Zm18.52,97.26q-6.69,11.1-22,11.8t-23-9.76c-5.1-6.67-8.29-17.32-8.85-29.6-.57-12.57,1.63-23.47,6.11-30.58q6.71-11.1,22-11.79t22.94,9.75c5.1,6.67,8.29,17.33,8.86,29.9.56,12.27-1.65,23.17-6.12,30.28Z"/></clipPath><clipPath id="clip-path-5" transform="translate(0 59.06)"><path class="cls-2" d="M241.84,1260.69c132.19-6,244.4,96.43,250.41,228.62s-96.43,244.4-228.62,250.41S19.24,1643.3,13.22,1511.1s96.43-244.39,228.62-250.41Z"/></clipPath><clipPath id="clip-path-6" transform="translate(0 59.06)"><path class="cls-3" d="M243.78,1303.32c108.67-5,200.9,79.26,205.84,187.93s-79.26,200.91-187.93,205.85-200.9-79.27-205.85-187.93,79.27-200.91,187.94-205.85Z"/></clipPath><clipPath id="clip-path-7" transform="translate(0 59.06)"><path class="cls-4" d="M214.86,1493.31a60.72,60.72,0,0,0,14.53-10.26,54.75,54.75,0,0,0,16.36-36.15c.73-16.83-4.47-32.19-15.15-42.8-7.24-7.48-20.54-16.17-42.39-15.18l-66.47,3a4.61,4.61,0,0,0-4.28,4.7l7,152.69a20.84,20.84,0,0,0,21.91,20l7.48-.34a4.61,4.61,0,0,0,4.29-4.69l-2.89-63.48,29.34-1.33c4.78,12.68,13.25,34.19,25.93,55.82a20.88,20.88,0,0,0,19.07,10.23l18.27-.83a4.54,4.54,0,0,0,3.58-7.06c-16-22.37-28.88-47.89-36.53-64.34Zm-63.44-75.72,38-1.72c7.79-.36,13.6,2.08,17.72,7,3.83,4.93,6,13.23,5.54,22.85-.54,14.42-9.32,25.92-20.7,26.44l-38,1.73-2.55-56.29Zm190.48,12.94c-19.16.87-30.75,9.8-37.84,18.82a21,21,0,0,0-21.43-16.12l-7.49.34a4.61,4.61,0,0,0-4.29,4.69l7.91,173.94a21.25,21.25,0,0,0,21.92,20l7.48-.35a4.4,4.4,0,0,0,4.28-4.69L309,1551.43c7.86,8,20.21,15.58,39.07,14.72,22.16-1,34.5-13.27,40.93-23.46,7.54-12.34,11.31-28.42,10.48-46.68-.84-18.56-6.06-34.22-14.69-45.83-7.33-9.57-20.74-20.66-42.89-19.65Zm18.53,97.26q-6.71,11.1-22,11.8t-22.94-9.76c-5.11-6.67-8.29-17.32-8.85-29.6-.57-12.57,1.63-23.47,6.11-30.58q6.71-11.1,22-11.79t22.94,9.75c5.1,6.67,8.28,17.33,8.86,29.9.56,12.27-1.65,23.17-6.12,30.28Z"/></clipPath></defs><g id="Layer_2" data-name="Layer 2"><g id="Layer_1-2" data-name="Layer 1"><path class="cls-5" d="M758.72,64.44C737,106.7,1004.55,317.23,988.53,404.71c-14.82,80.9-582.24,390.07-467.9,914.74,72.39,332.2,770.9,373.06,1001.44,264.13,250.79-118.51,340.08-405.2,262.67-660.53-59.61-196.6-346.77-373.7-343.17-477.43,3.85-110.94,208.09-234,170-365.45-53.75-185.45-214.58,8.76-392.08,10-194.6,1.33-380.33-182.24-460.77-25.7Z" transform="translate(0 59.06)"/><g class="cls-6"><path class="cls-7" d="M427.86,1093.53c-14.54-19.47,33.36,35.36,51.12,51.94,40.59,37.88,83,73.84,126,109a1444.54,1444.54,0,0,0,415.82,237.43c180.16,66.38,368.25,73.21,558.24,65.91,63.46-2.44,125.67-6.3,188.58-15.39,27.54-4,90.33-40.37,82.33-13.72-5.89,19.65-72,45-88.15,54.27C1483.41,1742,1053.63,1849,739.71,1753.2,573,1702.3,344.64,1358.12,427.86,1093.53Z" transform="translate(0 59.06)"/><path class="cls-8" d="M906.27,348.33c-1-.31,49.89,27.31,65.67,31.61,51,13.9,104.62,21.65,157,28.27,84.68,10.72,168,14.21,252.62,1.05,83.14-12.94,262.93-97.58,182.76,62.79-1.26,2.51-26,4.36-29.11,5-100.06,20.52-192.33,58.83-295.66,64.44-118.92,6.47-354-36.69-422.19-192.29-11.39-26,72.78,11.25,88.94-.86Z" transform="translate(0 59.06)"/><path class="cls-7" d="M704.33,35.24c1.22-.56,7.5,5,8.58,5.68C747,61.74,781.73,78.59,820,90.5c99.66,31,199.12,35.61,302.7,32.22,17.08-.56,123.58-10.81,126.53-34.47,4-32-122.39-93.56-144.94-100.4-125-37.91-318.66-102.58-400,47.39Z" transform="translate(0 59.06)"/></g><path class="cls-9" d="M1092.17,1013.14a144.74,144.74,0,0,0,35.76-22.89c24.32-21.45,39.33-51.49,42.91-84.38,3.57-40-7.15-77.24-31.47-103.7-16.45-18.59-47.2-40.76-99.4-40.76H881.21a11,11,0,0,0-10.73,10.73v364.72a49.75,49.75,0,0,0,50.06,50.06h17.88a11,11,0,0,0,10.73-10.73V1024.58h70.08c10,30.75,27.89,83,55.78,135.87a49.75,49.75,0,0,0,44.34,26.47H1163a10.84,10.84,0,0,0,9.29-16.45c-35.76-55.07-63.65-117.28-80.1-157.33Zm-143-187.37H1040c18.59,0,32.18,6.44,41.48,18.59,8.58,12.16,12.87,32.19,10.72,55.07-2.85,34.33-25,60.79-52.2,60.79H949.15V825.77Z" transform="translate(0 59.06)"/><path class="cls-9" d="M1401.83,877.26c-45.77,0-74.37,20-92.26,40.76a50,50,0,0,0-49.34-40.76h-17.88A11,11,0,0,0,1231.63,888v415.49c0,27.18,22.88,50.07,50.06,50.07h17.87a10.53,10.53,0,0,0,10.73-10.73V1161.88c17.88,20,46.49,39.34,91.54,39.34,52.92,0,83.67-27.89,100.12-51.49,19.31-28.61,30-66.51,30-110.13,0-44.34-10.73-82.24-30-110.85-16.45-23.6-47.2-51.49-100.12-51.49Zm33.61,233.85q-17.16,25.74-53.64,25.75t-53.63-25.75c-11.45-16.45-17.88-42.19-17.88-71.51,0-30,6.43-55.79,17.88-72.23q17.16-25.74,53.63-25.74t53.64,25.74c11.44,16.44,17.88,42.19,17.88,72.23,0,29.32-6.44,55.06-17.88,71.51Z" transform="translate(0 59.06)"/><path class="cls-10" d="M1081.46,992.26a145.05,145.05,0,0,0,35.75-22.89c24.32-21.45,39.33-51.49,42.91-84.38,3.58-40-7.15-77.24-31.47-103.7-16.44-18.59-47.19-40.76-99.4-40.76H870.49a11,11,0,0,0-10.73,10.73V1116A49.75,49.75,0,0,0,909.82,1166H927.7a11,11,0,0,0,10.73-10.73V1003.7h70.08c10,30.75,27.89,83,55.78,135.87a49.75,49.75,0,0,0,44.34,26.47h43.62a10.85,10.85,0,0,0,9.3-16.45c-35.76-55.07-63.65-117.28-80.09-157.33Zm-143-187.37h90.82c18.59,0,32.18,6.44,41.48,18.6,8.58,12.15,12.87,32.18,10.73,55.06-2.87,34.33-25,60.79-52.21,60.79H938.43V804.89Z" transform="translate(0 59.06)"/><path class="cls-10" d="M1391.11,856.38c-45.77,0-74.38,20-92.26,40.77a50,50,0,0,0-49.34-40.77h-17.88a11,11,0,0,0-10.73,10.73v415.5c0,27.17,22.89,50.06,50.06,50.06h17.89a10.53,10.53,0,0,0,10.72-10.73V1141c17.88,20,46.48,39.33,91.54,39.33,52.92,0,83.67-27.89,100.12-51.49,19.31-28.61,30-66.51,30-110.13,0-44.34-10.72-82.24-30-110.85-16.45-23.6-47.2-51.49-100.12-51.49Zm33.61,233.85q-17.16,25.76-53.63,25.75t-53.64-25.75c-11.44-16.44-17.88-42.19-17.88-71.51,0-30,6.44-55.78,17.88-72.23q17.16-25.74,53.64-25.74t53.63,25.74c11.44,16.45,17.88,42.19,17.88,72.23,0,29.32-6.44,55.07-17.88,71.51Z" transform="translate(0 59.06)"/><path class="cls-11" d="M609.22,1286.93c132.2-6,244.4,96.43,250.41,228.62S763.21,1760,631,1766s-244.4-96.43-250.42-228.62,96.43-244.4,228.62-250.41Z" transform="translate(0 59.06)"/><path class="cls-12" d="M622.19,1260.69c132.2-6,244.4,96.43,250.41,228.62S776.17,1733.71,644,1739.72,399.59,1643.3,393.57,1511.1,490,1266.71,622.19,1260.69Z" transform="translate(0 59.06)"/><g class="cls-13"><polygon class="cls-14" points="728.37 1304.36 421.26 1756.6 442.25 1770.86 749.35 1318.62 728.37 1304.36 728.37 1304.36"/><polygon class="cls-14" points="758.23 1331.63 451.13 1783.87 484.77 1806.72 791.88 1354.48 758.23 1331.63 758.23 1331.63"/></g><path class="cls-15" d="M624.13,1303.32c108.67-5,200.91,79.26,205.85,187.93S750.71,1692.16,642,1697.1s-200.9-79.27-205.85-187.93,79.28-200.91,187.94-205.85Z" transform="translate(0 59.06)"/><g class="cls-16"><path class="cls-17" d="M608.26,1283.71c-.08.33,29.79,15.14,29.53,15.19-11,2.28-21.94,7.24-32.24,11.42a400.6,400.6,0,0,0-94.28,53.59,271.3,271.3,0,0,0-57.22,59,245.53,245.53,0,0,0-16.44,26.65c-.25.48-3.83,8.88-4.05,8.82-1-.24-.77-4.48-.76-5.07.1-28.25,16.06-57.51,33.33-78.84l2.2-2.67c14.81-17.88,30.66-33.5,50.07-46.38a327.72,327.72,0,0,1,89.86-41.74Z" transform="translate(0 59.06)"/><path class="cls-17" d="M673.84,1718.1c.06-.33-31.22-11.88-31-12,10.66-3.42,21-9.52,30.85-14.77a401,401,0,0,0,88-63.29,271.32,271.32,0,0,0,50.63-64.78,247,247,0,0,0,13.52-28.24c.21-.51,2.87-9.24,3.09-9.21,1,.14,1.24,4.38,1.3,5,2.89,28.1-9.86,58.89-24.78,81.93-.63,1-1.26,1.92-1.91,2.88-12.82,19.36-26.92,36.58-44.85,51.44a327.2,327.2,0,0,1-84.93,51Z" transform="translate(0 59.06)"/></g><path class="cls-18" d="M595.21,1507.21A60.52,60.52,0,0,0,609.74,1497a54.73,54.73,0,0,0,16.36-36.14c.73-16.84-4.47-32.2-15.15-42.82-7.24-7.46-20.53-16.16-42.39-15.16l-66.46,3a4.62,4.62,0,0,0-4.29,4.7l6.95,152.68a20.85,20.85,0,0,0,21.91,20l7.48-.34a4.61,4.61,0,0,0,4.29-4.7l-2.89-63.47,29.34-1.33c4.78,12.68,13.26,34.2,25.94,55.82a20.87,20.87,0,0,0,19.07,10.24l18.26-.83a4.55,4.55,0,0,0,3.58-7.07c-16-22.37-28.88-47.89-36.53-64.34Zm-63.44-75.71,38-1.73c7.79-.36,13.6,2.08,17.72,7,3.83,4.92,6,13.22,5.54,22.84-.54,14.43-9.32,25.93-20.69,26.44l-38,1.73-2.55-56.28Z" transform="translate(0 59.06)"/><path class="cls-18" d="M722.26,1444.43c-19.17.87-30.76,9.8-37.85,18.82A21,21,0,0,0,663,1447.13l-7.49.34a4.61,4.61,0,0,0-4.28,4.7l7.9,173.93a21.25,21.25,0,0,0,21.92,20l7.48-.34a4.42,4.42,0,0,0,4.29-4.7l-3.45-75.74c7.87,8,20.21,15.58,39.07,14.72,22.16-1,34.5-13.27,40.94-23.46,7.53-12.34,11.3-28.42,10.47-46.67-.84-18.57-6.05-34.23-14.68-45.84-7.34-9.57-20.74-20.65-42.89-19.65Zm18.52,97.26q-6.69,11.11-22,11.8t-23-9.76c-5.1-6.67-8.29-17.32-8.85-29.59-.57-12.58,1.63-23.48,6.11-30.58q6.71-11.1,22-11.8t22.94,9.76c5.1,6.66,8.29,17.32,8.86,29.89.56,12.28-1.65,23.18-6.12,30.28Z" transform="translate(0 59.06)"/><g class="cls-19"><path class="cls-20" d="M595.21,1493.31a60.52,60.52,0,0,0,14.53-10.26,54.75,54.75,0,0,0,16.36-36.15c.73-16.83-4.47-32.19-15.15-42.8-7.24-7.48-20.53-16.17-42.39-15.18l-66.46,3a4.62,4.62,0,0,0-4.29,4.7l6.95,152.69a20.85,20.85,0,0,0,21.91,20l7.48-.34a4.61,4.61,0,0,0,4.29-4.69l-2.89-63.48,29.34-1.33c4.78,12.68,13.26,34.19,25.94,55.82a20.86,20.86,0,0,0,19.07,10.23l18.26-.83a4.54,4.54,0,0,0,3.58-7.06c-16-22.37-28.88-47.89-36.53-64.34Zm-63.44-75.72,38-1.72c7.79-.36,13.6,2.08,17.72,7,3.83,4.93,6,13.23,5.54,22.85-.54,14.42-9.32,25.92-20.69,26.44l-38,1.73-2.55-56.29Z" transform="translate(0 59.06)"/><path class="cls-20" d="M722.26,1430.53c-19.17.87-30.76,9.8-37.85,18.82A21,21,0,0,0,663,1433.23l-7.49.34a4.61,4.61,0,0,0-4.28,4.69l7.9,173.94a21.26,21.26,0,0,0,21.92,20l7.48-.35a4.41,4.41,0,0,0,4.29-4.69l-3.45-75.74c7.87,8,20.21,15.58,39.07,14.72,22.16-1,34.5-13.27,40.94-23.46,7.53-12.34,11.3-28.42,10.47-46.68-.84-18.56-6.05-34.22-14.68-45.83-7.34-9.57-20.74-20.66-42.89-19.65Zm18.52,97.26q-6.69,11.1-22,11.8t-23-9.76c-5.1-6.67-8.29-17.32-8.85-29.6-.57-12.57,1.63-23.47,6.11-30.58q6.71-11.1,22-11.79t22.94,9.75c5.1,6.67,8.29,17.33,8.86,29.9.56,12.27-1.65,23.17-6.12,30.28Z" transform="translate(0 59.06)"/><polygon class="cls-14" points="690.18 1363.11 469.14 1688.62 491.83 1704.03 712.87 1378.52 690.18 1363.11 690.18 1363.11"/><polygon class="cls-14" points="723.64 1390.86 502.6 1716.37 538.97 1741.07 760.01 1415.56 723.64 1390.86 723.64 1390.86"/></g><path class="cls-11" d="M228.87,1286.93c132.19-6,244.4,96.43,250.41,228.62S382.85,1760,250.67,1766,6.26,1669.53.25,1537.34s96.43-244.4,228.62-250.41Z" transform="translate(0 59.06)"/><path class="cls-12" d="M241.84,1260.69c132.19-6,244.4,96.43,250.41,228.62s-96.43,244.4-228.62,250.41S19.24,1643.3,13.22,1511.1s96.43-244.39,228.62-250.41Z" transform="translate(0 59.06)"/><g class="cls-21"><polygon class="cls-14" points="348.01 1304.36 40.91 1756.6 61.9 1770.86 369 1318.62 348.01 1304.36 348.01 1304.36"/><polygon class="cls-14" points="377.88 1331.63 70.77 1783.87 104.42 1806.72 411.52 1354.48 377.88 1331.63 377.88 1331.63"/></g><path class="cls-15" d="M243.78,1303.32c108.67-5,200.9,79.26,205.84,187.93s-79.26,200.91-187.93,205.85-200.9-79.27-205.85-187.93,79.27-200.91,187.94-205.85Z" transform="translate(0 59.06)"/><g class="cls-22"><path class="cls-17" d="M227.91,1283.71c-.09.33,29.79,15.14,29.53,15.19-11,2.28-21.94,7.24-32.24,11.42a400.6,400.6,0,0,0-94.28,53.59,270.84,270.84,0,0,0-57.22,59,245.53,245.53,0,0,0-16.44,26.65c-.26.48-3.83,8.88-4,8.82-1-.24-.77-4.48-.77-5.07.11-28.25,16.06-57.51,33.34-78.84l2.2-2.67c14.81-17.88,30.66-33.5,50.06-46.38a327.65,327.65,0,0,1,89.87-41.74Z" transform="translate(0 59.06)"/><path class="cls-17" d="M293.49,1718.1c.05-.33-31.22-11.88-31-12,10.65-3.42,21-9.52,30.85-14.77a401.23,401.23,0,0,0,88.05-63.29,271.32,271.32,0,0,0,50.63-64.78,247,247,0,0,0,13.52-28.24c.2-.51,2.87-9.24,3.09-9.21,1,.14,1.24,4.38,1.3,5,2.89,28.1-9.87,58.89-24.78,81.93-.63,1-1.27,1.92-1.91,2.88-12.82,19.36-26.92,36.58-44.85,51.44a327.2,327.2,0,0,1-84.93,51Z" transform="translate(0 59.06)"/></g><path class="cls-18" d="M214.86,1507.21A60.72,60.72,0,0,0,229.39,1497a54.73,54.73,0,0,0,16.36-36.14c.73-16.84-4.47-32.2-15.15-42.82-7.24-7.46-20.54-16.16-42.39-15.16l-66.47,3a4.61,4.61,0,0,0-4.28,4.7l7,152.68a20.84,20.84,0,0,0,21.91,20l7.48-.34a4.62,4.62,0,0,0,4.29-4.7l-2.89-63.47,29.34-1.33c4.78,12.68,13.25,34.2,25.93,55.82a20.89,20.89,0,0,0,19.07,10.24l18.27-.83a4.55,4.55,0,0,0,3.58-7.07c-16-22.37-28.88-47.89-36.53-64.34Zm-63.44-75.71,38-1.73c7.79-.36,13.6,2.08,17.72,7,3.83,4.92,6,13.22,5.54,22.84-.54,14.43-9.32,25.93-20.7,26.44l-38,1.73-2.55-56.28Z" transform="translate(0 59.06)"/><path class="cls-18" d="M341.9,1444.43c-19.16.87-30.75,9.8-37.84,18.82a21,21,0,0,0-21.43-16.12l-7.49.34a4.62,4.62,0,0,0-4.29,4.7l7.91,173.93a21.25,21.25,0,0,0,21.92,20l7.48-.34a4.42,4.42,0,0,0,4.28-4.7L309,1565.33c7.86,8,20.21,15.58,39.07,14.72,22.16-1,34.5-13.27,40.93-23.46,7.54-12.34,11.31-28.42,10.48-46.67-.84-18.57-6.06-34.23-14.69-45.84-7.33-9.57-20.74-20.65-42.89-19.65Zm18.53,97.26q-6.71,11.11-22,11.8t-22.94-9.76c-5.11-6.67-8.29-17.32-8.85-29.59-.57-12.58,1.63-23.48,6.11-30.58q6.71-11.1,22-11.8t22.94,9.76c5.1,6.66,8.28,17.32,8.86,29.89.56,12.28-1.65,23.18-6.12,30.28Z" transform="translate(0 59.06)"/><g class="cls-23"><path class="cls-20" d="M214.86,1493.31a60.72,60.72,0,0,0,14.53-10.26,54.75,54.75,0,0,0,16.36-36.15c.73-16.83-4.47-32.19-15.15-42.8-7.24-7.48-20.54-16.17-42.39-15.18l-66.47,3a4.61,4.61,0,0,0-4.28,4.7l7,152.69a20.84,20.84,0,0,0,21.91,20l7.48-.34a4.61,4.61,0,0,0,4.29-4.69l-2.89-63.48,29.34-1.33c4.78,12.68,13.25,34.19,25.93,55.82a20.88,20.88,0,0,0,19.07,10.23l18.27-.83a4.54,4.54,0,0,0,3.58-7.06c-16-22.37-28.88-47.89-36.53-64.34Zm-63.44-75.72,38-1.72c7.79-.36,13.6,2.08,17.72,7,3.83,4.93,6,13.23,5.54,22.85-.54,14.42-9.32,25.92-20.7,26.44l-38,1.73-2.55-56.29Z" transform="translate(0 59.06)"/><path class="cls-20" d="M341.9,1430.53c-19.16.87-30.75,9.8-37.84,18.82a21,21,0,0,0-21.43-16.12l-7.49.34a4.61,4.61,0,0,0-4.29,4.69l7.91,173.94a21.25,21.25,0,0,0,21.92,20l7.48-.35a4.4,4.4,0,0,0,4.28-4.69L309,1551.43c7.86,8,20.21,15.58,39.07,14.72,22.16-1,34.5-13.27,40.93-23.46,7.54-12.34,11.31-28.42,10.48-46.68-.84-18.56-6.06-34.22-14.69-45.83-7.33-9.57-20.74-20.66-42.89-19.65Zm18.53,97.26q-6.71,11.1-22,11.8t-22.94-9.76c-5.11-6.67-8.29-17.32-8.85-29.6-.57-12.57,1.63-23.47,6.11-30.58q6.71-11.1,22-11.79t22.94,9.75c5.1,6.67,8.28,17.33,8.86,29.9.56,12.27-1.65,23.17-6.12,30.28Z" transform="translate(0 59.06)"/><polygon class="cls-14" points="309.83 1363.11 88.78 1688.62 111.48 1704.03 332.52 1378.52 309.83 1363.11 309.83 1363.11"/><polygon class="cls-14" points="343.29 1390.86 122.25 1716.37 158.62 1741.07 379.66 1415.56 343.29 1390.86 343.29 1390.86"/></g></g></g></svg>