<svg xmlns="http://www.w3.org/2000/svg" xmlns:xlink="http://www.w3.org/1999/xlink" version="1.1" width="256" height="256" viewBox="0 0 256 256" xml:space="preserve">

<defs>
</defs>
<g style="stroke: none; stroke-width: 0; stroke-dasharray: none; stroke-linecap: butt; stroke-linejoin: miter; stroke-miterlimit: 10; fill: none; fill-rule: nonzero; opacity: 1;" transform="translate(1.4065934065934016 1.4065934065934016) scale(2.81 2.81)" >
	<path d="M 45.478 41.569 c 2.228 -6.559 7.415 -11.746 13.974 -13.974 l 23.64 -23.64 L 1 40.095 l 20.092 14.792 l 13.919 -2.852 L 45.478 41.569 z" style="stroke: none; stroke-width: 1; stroke-dasharray: none; stroke-linecap: butt; stroke-linejoin: miter; stroke-miterlimit: 10; fill: rgb(14,156,74); fill-rule: nonzero; opacity: 1;" transform=" matrix(1 0 0 1 0 0) " stroke-linecap="round" />
	<path d="M 44.288 48.761 c 0 -2.517 0.422 -4.934 1.189 -7.192 c 0 0 0 0 0 0 L 35.011 52.035 l -2.852 13.919 l 14.792 20.092 l 8.02 -18.218 C 48.564 63.897 44.288 56.829 44.288 48.761 z" style="stroke: none; stroke-width: 1; stroke-dasharray: none; stroke-linecap: butt; stroke-linejoin: miter; stroke-miterlimit: 10; fill: rgb(10,123,57); fill-rule: nonzero; opacity: 1;" transform=" matrix(1 0 0 1 0 0) " stroke-linecap="round" />
	<path d="M 59.452 27.594 C 59.452 27.594 59.452 27.594 59.452 27.594 C 59.451 27.594 59.451 27.594 59.452 27.594 c 2.257 -0.767 4.675 -1.189 7.192 -1.189 c 2.145 0 4.216 0.308 6.18 0.872 L 83.092 3.954 L 59.452 27.594 z" style="stroke: none; stroke-width: 1; stroke-dasharray: none; stroke-linecap: butt; stroke-linejoin: miter; stroke-miterlimit: 10; fill: rgb(10,123,57); fill-rule: nonzero; opacity: 1;" transform=" matrix(1 0 0 1 0 0) " stroke-linecap="round" />
	<path d="M 5.979 82.067 c -0.256 0 -0.512 -0.098 -0.707 -0.293 c -0.391 -0.391 -0.391 -1.023 0 -1.414 l 20.772 -20.771 c 0.391 -0.391 1.023 -0.391 1.414 0 s 0.391 1.023 0 1.414 L 6.686 81.774 C 6.49 81.97 6.234 82.067 5.979 82.067 z" style="stroke: none; stroke-width: 1; stroke-dasharray: none; stroke-linecap: butt; stroke-linejoin: miter; stroke-miterlimit: 10; fill: rgb(0,0,0); fill-rule: nonzero; opacity: 1;" transform=" matrix(1 0 0 1 0 0) " stroke-linecap="round" />
	<path d="M 1.493 67.061 c -0.256 0 -0.512 -0.098 -0.707 -0.293 c -0.391 -0.391 -0.391 -1.023 0 -1.414 l 8.971 -8.971 c 0.391 -0.391 1.023 -0.391 1.414 0 s 0.391 1.023 0 1.414 L 2.2 66.768 C 2.005 66.963 1.749 67.061 1.493 67.061 z" style="stroke: none; stroke-width: 1; stroke-dasharray: none; stroke-linecap: butt; stroke-linejoin: miter; stroke-miterlimit: 10; fill: rgb(0,0,0); fill-rule: nonzero; opacity: 1;" transform=" matrix(1 0 0 1 0 0) " stroke-linecap="round" />
	<path d="M 20.986 86.553 c -0.256 0 -0.512 -0.098 -0.707 -0.293 c -0.391 -0.391 -0.391 -1.023 0 -1.414 l 8.971 -8.971 c 0.391 -0.391 1.023 -0.391 1.414 0 s 0.391 1.023 0 1.414 l -8.971 8.971 C 21.498 86.455 21.242 86.553 20.986 86.553 z" style="stroke: none; stroke-width: 1; stroke-dasharray: none; stroke-linecap: butt; stroke-linejoin: miter; stroke-miterlimit: 10; fill: rgb(0,0,0); fill-rule: nonzero; opacity: 1;" transform=" matrix(1 0 0 1 0 0) " stroke-linecap="round" />
	<circle cx="66.646" cy="48.766000000000005" r="22.356" style="stroke: none; stroke-width: 1; stroke-dasharray: none; stroke-linecap: butt; stroke-linejoin: miter; stroke-miterlimit: 10; fill: rgb(223,183,20); fill-rule: nonzero; opacity: 1;" transform="  matrix(1 0 0 1 0 0) "/>
	<circle cx="66.64" cy="48.760000000000005" r="17.5" style="stroke: none; stroke-width: 1; stroke-dasharray: none; stroke-linecap: butt; stroke-linejoin: miter; stroke-miterlimit: 10; fill: rgb(253,207,23); fill-rule: nonzero; opacity: 1;" transform="  matrix(1 0 0 1 0 0) "/>
	<path d="M 66.645 72.116 c -12.879 0 -23.356 -10.478 -23.356 -23.355 c 0 -12.878 10.478 -23.356 23.356 -23.356 C 79.522 25.405 90 35.882 90 48.761 C 90 61.639 79.522 72.116 66.645 72.116 z M 66.645 27.405 c -11.776 0 -21.356 9.58 -21.356 21.356 c 0 11.775 9.58 21.355 21.356 21.355 C 78.42 70.116 88 60.536 88 48.761 C 88 36.985 78.42 27.405 66.645 27.405 z" style="stroke: none; stroke-width: 1; stroke-dasharray: none; stroke-linecap: butt; stroke-linejoin: miter; stroke-miterlimit: 10; fill: rgb(0,0,0); fill-rule: nonzero; opacity: 1;" transform=" matrix(1 0 0 1 0 0) " stroke-linecap="round" />
	<path d="M 46.951 87.046 c -0.315 0 -0.615 -0.149 -0.806 -0.407 L 31.354 66.547 c -0.168 -0.228 -0.231 -0.517 -0.174 -0.794 l 2.547 -12.434 l -12.434 2.547 c -0.276 0.059 -0.565 -0.007 -0.793 -0.174 L 0.407 40.9 c -0.288 -0.211 -0.44 -0.56 -0.401 -0.915 c 0.04 -0.354 0.265 -0.662 0.591 -0.805 L 82.688 3.039 c 0.378 -0.167 0.819 -0.083 1.11 0.208 c 0.292 0.292 0.374 0.732 0.208 1.11 L 73.739 27.68 c -0.202 0.458 -0.712 0.696 -1.191 0.558 c -1.925 -0.553 -3.911 -0.833 -5.903 -0.833 c -11.776 0 -21.356 9.58 -21.356 21.356 c 0 7.485 3.815 14.295 10.206 18.215 c 0.427 0.262 0.595 0.798 0.393 1.256 l -8.021 18.218 c -0.144 0.326 -0.45 0.552 -0.806 0.591 C 47.024 87.044 46.987 87.046 46.951 87.046 z M 33.228 65.72 l 13.504 18.342 l 6.979 -15.853 c -6.543 -4.348 -10.423 -11.554 -10.423 -19.448 c 0 -12.878 10.478 -23.356 23.356 -23.356 c 1.888 0 3.771 0.23 5.609 0.685 L 81.14 5.906 L 2.984 40.314 l 18.343 13.503 l 13.483 -2.762 c 0.332 -0.067 0.67 0.035 0.908 0.272 s 0.34 0.578 0.272 0.908 L 33.228 65.72 z" style="stroke: none; stroke-width: 1; stroke-dasharray: none; stroke-linecap: butt; stroke-linejoin: miter; stroke-miterlimit: 10; fill: rgb(0,0,0); fill-rule: nonzero; opacity: 1;" transform=" matrix(1 0 0 1 0 0) " stroke-linecap="round" />
	<path d="M 62.115 47.838 h -4.344 c -0.553 0 -1 -0.447 -1 -1 v -7.843 c 0 -0.552 0.447 -1 1 -1 h 4.344 c 2.714 0 4.922 2.208 4.922 4.922 S 64.829 47.838 62.115 47.838 z M 58.771 45.838 h 3.344 c 1.611 0 2.922 -1.311 2.922 -2.921 c 0 -1.611 -1.311 -2.922 -2.922 -2.922 h -3.344 V 45.838 z" style="stroke: none; stroke-width: 1; stroke-dasharray: none; stroke-linecap: butt; stroke-linejoin: miter; stroke-miterlimit: 10; fill: rgb(0,0,0); fill-rule: nonzero; opacity: 1;" transform=" matrix(1 0 0 1 0 0) " stroke-linecap="round" />
	<path d="M 57.771 55.709 c -0.553 0 -1 -0.447 -1 -1 v -7.844 c 0 -0.553 0.447 -1 1 -1 s 1 0.447 1 1 v 7.844 C 58.771 55.262 58.324 55.709 57.771 55.709 z" style="stroke: none; stroke-width: 1; stroke-dasharray: none; stroke-linecap: butt; stroke-linejoin: miter; stroke-miterlimit: 10; fill: rgb(0,0,0); fill-rule: nonzero; opacity: 1;" transform=" matrix(1 0 0 1 0 0) " stroke-linecap="round" />
	<path d="M 66.038 55.709 c -0.349 0 -0.688 -0.183 -0.871 -0.507 l -4.441 -7.844 c -0.272 -0.481 -0.104 -1.091 0.377 -1.363 c 0.482 -0.272 1.091 -0.103 1.363 0.377 l 4.441 7.844 c 0.272 0.481 0.104 1.091 -0.377 1.363 C 66.374 55.667 66.205 55.709 66.038 55.709 z" style="stroke: none; stroke-width: 1; stroke-dasharray: none; stroke-linecap: butt; stroke-linejoin: miter; stroke-miterlimit: 10; fill: rgb(0,0,0); fill-rule: nonzero; opacity: 1;" transform=" matrix(1 0 0 1 0 0) " stroke-linecap="round" />
	<path d="M 75.604 55.459 h -4.476 c -0.553 0 -1 -0.447 -1 -1 V 46.38 c 0 -0.552 0.447 -1 1 -1 h 4.476 c 2.778 0 5.039 2.261 5.039 5.039 C 80.643 53.198 78.382 55.459 75.604 55.459 z M 72.128 53.459 h 3.476 c 1.676 0 3.039 -1.363 3.039 -3.04 c 0 -1.676 -1.363 -3.039 -3.039 -3.039 h -3.476 V 53.459 z" style="stroke: none; stroke-width: 1; stroke-dasharray: none; stroke-linecap: butt; stroke-linejoin: miter; stroke-miterlimit: 10; fill: rgb(0,0,0); fill-rule: nonzero; opacity: 1;" transform=" matrix(1 0 0 1 0 0) " stroke-linecap="round" />
	<path d="M 71.128 61.994 c -0.553 0 -1 -0.447 -1 -1 v -6.508 c 0 -0.553 0.447 -1 1 -1 s 1 0.447 1 1 v 6.508 C 72.128 61.547 71.681 61.994 71.128 61.994 z" style="stroke: none; stroke-width: 1; stroke-dasharray: none; stroke-linecap: butt; stroke-linejoin: miter; stroke-miterlimit: 10; fill: rgb(0,0,0); fill-rule: nonzero; opacity: 1;" transform=" matrix(1 0 0 1 0 0) " stroke-linecap="round" />
</g>
</svg>